<?xml version="1.0" encoding="UTF-8"?>
<svg id="Layer_1" data-name="Layer 1" xmlns="http://www.w3.org/2000/svg" version="1.1" viewBox="0 0 500 322.3">
  <defs>
    <style>
      .cls-1 {
        fill: #fff;
        stroke-width: 0px;
      }
    </style>
  </defs>
  <path class="cls-1" d="M481.7,103.8v-5.3c0-3.2-2.6-5.8-5.8-5.8h-187.1c-6.1,0-11.8,3.3-14.8,8.6l-30.6,52.9-84.1,145.7c-2.2,3.9.6,8.7,5,8.7h55.9c2.1,0,4-1.1,5-2.9l82.7-143.3c2.9-5.1,8.3-8.2,14.2-8.2h0c12.6,0,20.5,13.7,14.2,24.6l-69.9,121.1c-2.2,3.9.6,8.7,5,8.7h49.3c2.1,0,4-1.1,5-2.9l82.7-143.3c2.9-5.1,8.3-8.2,14.2-8.2h3.4c12.5,0,20.4,13.4,14.4,24.3l-66.9,121.5c-2.1,3.9.7,8.6,5.1,8.6h97.1c3.2,0,5.8-2.6,5.8-5.8V103.8Z"/>
  <path class="cls-1" d="M268.1,56.1h207.8c3.2,0,5.8-2.6,5.8-5.8v-23.1c0-3.2-2.6-5.8-5.8-5.8H19.3c-3.2,0-5.8,2.6-5.8,5.8v23.1c0,3.2,2.6,5.8,5.8,5.8h155c7.5,0,12.2,8.1,8.5,14.7l-91.6,158.7c-3.5,6-9.9,9.7-16.9,9.7h0c-15,0-24.4-16.3-16.8-29.2l63-108.4c2.3-4-.6-8.9-5.1-8.9H19c-3,0-5.4,2.4-5.4,5.4v204.1c0,3.5,2.8,6.3,6.3,6.3h89.5c1.9,0,3.7-1,4.6-2.7L253.3,64.6c3.1-5.3,8.7-8.6,14.8-8.6Z"/>
</svg>